<mxfile host="app.diagrams.net" modified="2024-04-05T11:35:17.998Z" agent="Mozilla/5.0 (Windows NT 10.0; Win64; x64) AppleWebKit/537.36 (KHTML, like Gecko) Chrome/123.0.0.0 Safari/537.36" version="24.2.2" etag="t07iGJ-B9wLKMB_wEKgs" type="github">
  <diagram name="第 1 页" id="0D2rmQDQvzSRQ3f4NaUL">
    <mxGraphModel>
      <root>
        <mxCell id="0" />
        <mxCell id="1" parent="0" />
      </root>
    </mxGraphModel>
  </diagram>
</mxfile>
